<svg width="321" height="115" viewBox="0 0 321 115" fill="none" xmlns="http://www.w3.org/2000/svg">
<path d="M74.4907 52.4254L63.7351 47.6165L52.9902 52.4254V71.9684L63.7351 67.1594L74.4907 71.9684V52.4254Z" fill="#153898"/>
<path d="M74.4905 23.1374L63.735 18.3285L52.9901 23.1374V42.6804L63.735 37.8715L74.4905 42.6804V23.1374Z" fill="#153898"/>
<path d="M10 23.1375V42.6804L18.8506 18.3391L10 23.1375Z" fill="#153898"/>
<path d="M22.6498 18.3391L31.5004 42.6804V23.1375L22.6498 18.3391Z" fill="#153898"/>
<path d="M18.9255 18.3285V37.8715L10 42.6804L18.8506 18.3391L18.9255 18.3285Z" fill="#F9B200"/>
<path d="M31.5005 42.6804L22.575 37.8715V18.3285L22.6498 18.3391L31.5005 42.6804Z" fill="#F9B200"/>
<path d="M31.5004 69.3307V51.6202H10V72.0742C10 83.7682 19.5783 93.2377 31.3827 93.2377H52.9901V71.9576H34.1545C32.6776 71.9576 31.4897 70.7819 31.4897 69.3201L31.5004 69.3307Z" fill="#153898"/>
<path d="M97.1682 18.286H101.117V38.0938H97.1682V18.286Z" fill="#153898"/>
<path d="M104.114 23.9635H107.72V25.6583C108.138 25.0757 108.684 24.6097 109.347 24.2601C110.011 23.9106 110.685 23.7411 111.348 23.7411H113.061C114.58 23.7411 115.811 24.2177 116.732 25.1605C117.652 26.1032 118.123 27.3531 118.123 28.8996V38.0938H114.238V29.0373C114.238 28.4547 114.077 27.978 113.767 27.6179C113.457 27.2578 113.05 27.0777 112.558 27.0777H110.845C110.182 27.0777 109.583 27.3213 109.058 27.798C108.534 28.2746 108.191 28.9102 108.009 29.6834V38.0832H104.124V23.9635H104.114Z" fill="#153898"/>
<path d="M121.537 36.7804C120.499 35.7635 119.974 34.4183 119.974 32.7659V29.5352C119.974 28.3807 120.22 27.3744 120.713 26.4952C121.205 25.616 121.901 24.9381 122.799 24.4615C123.698 23.9848 124.737 23.7412 125.914 23.7412H127.487C128.043 23.7412 128.6 23.8577 129.178 24.0907C129.745 24.3238 130.227 24.6415 130.612 25.0335V18.2755H134.497V38.0833H130.89V36.219C130.505 36.844 129.991 37.3418 129.349 37.7337C128.696 38.1151 128.022 38.3163 127.316 38.3163H125.625C123.934 38.3163 122.564 37.8079 121.526 36.791L121.537 36.7804ZM127.755 35.0009C128.536 35.0009 129.189 34.7255 129.713 34.1641C130.237 33.6133 130.537 32.8718 130.612 31.9397V29.4823C130.484 28.7514 130.184 28.1582 129.745 27.7133C129.296 27.2685 128.771 27.046 128.161 27.046H126.417C125.657 27.046 125.036 27.3002 124.576 27.8087C124.105 28.3171 123.88 28.9844 123.88 29.8212V32.4799C123.88 33.232 124.094 33.8463 124.512 34.3018C124.929 34.7679 125.475 34.9903 126.139 34.9903H127.765L127.755 35.0009Z" fill="#153898"/>
<path d="M138.307 36.8015C137.397 35.7952 136.937 34.4712 136.937 32.8294V23.9741H140.822V32.8823C140.822 33.5073 140.982 34.0051 141.293 34.397C141.603 34.7889 142.02 34.9796 142.534 34.9796H144.193C144.824 34.9796 145.392 34.7254 145.905 34.2064C146.419 33.6873 146.783 32.9988 146.986 32.1514V23.9741H150.871V38.0938H147.264V36.2825C146.826 36.8862 146.291 37.3735 145.649 37.7548C145.006 38.1361 144.396 38.3162 143.808 38.3162H141.924C140.415 38.3162 139.206 37.8078 138.296 36.8015H138.307Z" fill="#153898"/>
<path d="M154.371 36.9498C153.322 36.0495 152.797 34.8525 152.797 33.3802H156.629C156.629 33.8886 156.8 34.3017 157.153 34.6089C157.506 34.9161 157.967 35.0749 158.544 35.0749H161.113C162.258 35.0749 162.825 34.7678 162.825 34.1428V33.6662C162.825 33.4755 162.729 33.306 162.536 33.1471C162.344 32.9883 162.087 32.8823 161.766 32.8188L156.821 31.9714C155.655 31.7807 154.735 31.3676 154.06 30.7427C153.386 30.1071 153.044 29.3656 153.044 28.5183V27.5861C153.044 26.3786 153.547 25.4359 154.542 24.7579C155.537 24.08 156.939 23.7411 158.726 23.7411H160.952C162.558 23.7411 163.842 24.1648 164.827 25.0016C165.811 25.8384 166.303 26.9506 166.303 28.3276H162.472C162.472 27.9145 162.333 27.5861 162.055 27.3425C161.777 27.0989 161.413 26.9718 160.952 26.9718H158.78C157.538 26.9718 156.918 27.2578 156.918 27.8192V28.2746C156.918 28.4865 157.003 28.656 157.164 28.7937C157.324 28.9314 157.56 29.0373 157.86 29.0903L163.061 30.0224C164.142 30.213 165.019 30.6155 165.693 31.2299C166.357 31.8443 166.689 32.5328 166.689 33.306V34.3229C166.689 35.5516 166.175 36.5155 165.158 37.2358C164.142 37.9561 162.782 38.3162 161.081 38.3162H158.512C156.779 38.3162 155.387 37.8607 154.339 36.9604L154.371 36.9498Z" fill="#153898"/>
<path d="M170.83 36.9497C170.049 36.1977 169.653 35.0219 169.653 33.4436V27.2471H167.138V23.9634H169.771V19.6947H173.549V23.9634H177.262V27.2471H173.549V33.2742C173.549 33.8038 173.645 34.1851 173.848 34.4393C174.052 34.6829 174.362 34.8101 174.801 34.8101H177.262V38.0937H174.523C172.842 38.0937 171.612 37.7124 170.83 36.9603V36.9497Z" fill="#153898"/>
<path d="M179.296 23.9635H182.902V25.7748C183.266 25.224 183.78 24.7791 184.465 24.4295C185.139 24.08 185.856 23.9105 186.595 23.9105H188.542V27.2471H186.595C185.589 27.2471 184.764 27.5543 184.133 28.1475C183.502 28.7512 183.191 29.5245 183.191 30.4672V38.0831H179.306V23.9635H179.296Z" fill="#153898"/>
<path d="M190.201 22.0039C189.752 21.5802 189.527 21.0188 189.527 20.3197C189.527 19.6206 189.752 19.0592 190.201 18.6355C190.651 18.2118 191.25 18 191.988 18C192.727 18 193.326 18.2118 193.776 18.6355C194.225 19.0592 194.45 19.6206 194.45 20.3197C194.45 21.0188 194.225 21.5802 193.776 22.0039C193.326 22.4276 192.727 22.6395 191.988 22.6395C191.25 22.6395 190.651 22.4276 190.201 22.0039ZM190.041 23.9635H193.926V38.0832H190.041V23.9635Z" fill="#153898"/>
<path d="M197.96 37.2146C197.051 36.4838 196.59 35.5093 196.59 34.3017V33.2531C196.59 32.0667 197.072 31.1028 198.024 30.3826C198.977 29.6517 200.24 29.2915 201.802 29.2915H203.547C204.039 29.2915 204.574 29.3551 205.152 29.4928C205.719 29.6199 206.244 29.8 206.725 30.033V28.5607C206.725 28.0946 206.565 27.7027 206.254 27.4167C205.944 27.1201 205.527 26.9824 205.013 26.9824H202.551C202.016 26.9824 201.588 27.1095 201.267 27.3531C200.946 27.5968 200.786 27.9251 200.786 28.3382H197.008C197.008 26.9612 197.521 25.849 198.538 25.0122C199.555 24.1754 200.893 23.7517 202.551 23.7517H205.013C206.693 23.7517 208.042 24.186 209.069 25.0652C210.096 25.9443 210.61 27.1095 210.61 28.5607V38.0938H207.003V36.399C206.543 36.9816 205.987 37.4477 205.313 37.7972C204.649 38.1468 203.985 38.3162 203.343 38.3162H201.567C200.079 38.3162 198.881 37.9455 197.96 37.2146ZM203.622 35.2868C204.328 35.2868 204.959 35.1068 205.505 34.7466C206.062 34.3865 206.458 33.9098 206.704 33.3061V32.8294C206.393 32.607 205.976 32.4269 205.43 32.2892C204.884 32.1621 204.307 32.0879 203.697 32.0879H201.899C201.438 32.0879 201.074 32.2044 200.786 32.4269C200.497 32.6493 200.357 32.9565 200.357 33.3272V34.0581C200.357 34.4182 200.518 34.7042 200.828 34.9373C201.139 35.1703 201.556 35.2762 202.07 35.2762H203.611L203.622 35.2868Z" fill="#153898"/>
<path d="M214.217 37.024C213.425 36.3143 213.029 35.2232 213.029 33.7297V18.286H216.913V33.5073C216.913 33.9628 217.02 34.2911 217.224 34.4924C217.438 34.7042 217.77 34.7996 218.219 34.7996H219.76V38.0832H217.93C216.239 38.0832 214.987 37.7336 214.195 37.024H214.217Z" fill="#153898"/>
<path d="M100.539 65.0302C99.4691 64.4371 98.6451 63.6002 98.0565 62.5304C97.4679 61.45 97.1682 60.2107 97.1682 58.7913V45.8898H101.117V58.6748C101.117 59.8082 101.406 60.7191 101.984 61.4182C102.562 62.1173 103.322 62.4669 104.253 62.4669H107.282C108.234 62.4669 109.005 62.1173 109.593 61.4182C110.182 60.7191 110.482 59.8082 110.482 58.6748V45.8898H114.431V58.7913C114.431 60.2107 114.131 61.45 113.542 62.5304C112.954 63.6108 112.108 64.4371 111.027 65.0302C109.946 65.6234 108.694 65.92 107.282 65.92H104.253C102.84 65.92 101.599 65.6234 100.539 65.0302Z" fill="#153898"/>
<path d="M117.031 51.5779H120.638V53.2727C121.055 52.6901 121.601 52.2241 122.264 51.8745C122.928 51.525 123.602 51.3555 124.266 51.3555H125.978C127.498 51.3555 128.728 51.8321 129.649 52.7749C130.569 53.7176 131.04 54.9675 131.04 56.514V65.7082H127.155V56.6517C127.155 56.0691 126.995 55.5924 126.684 55.2323C126.374 54.8721 125.967 54.6921 125.475 54.6921H123.763C123.099 54.6921 122.5 54.9357 121.975 55.4124C121.451 55.889 121.109 56.5246 120.927 57.2978V65.6976H117.042V51.5779H117.031Z" fill="#153898"/>
<path d="M134.144 49.6077C133.694 49.184 133.47 48.6226 133.47 47.9235C133.47 47.2244 133.694 46.663 134.144 46.2393C134.593 45.8156 135.193 45.6038 135.931 45.6038C136.67 45.6038 137.269 45.8156 137.718 46.2393C138.168 46.663 138.393 47.2244 138.393 47.9235C138.393 48.6226 138.168 49.184 137.718 49.6077C137.269 50.0314 136.67 50.2432 135.931 50.2432C135.193 50.2432 134.593 50.0314 134.144 49.6077ZM133.983 51.5779H137.868V65.6975H133.983V51.5779Z" fill="#153898"/>
<path d="M145.146 65.2633C144.771 64.9667 144.45 64.5006 144.193 63.8651L139.281 51.5885H143.369L146.74 61.2911H146.794L150.197 51.5885H154.285L148.538 65.7082H146.537C145.98 65.7082 145.52 65.5599 145.146 65.2739V65.2633Z" fill="#153898"/>
<path d="M157.185 65.2633C156.265 64.8184 155.537 64.1935 155.023 63.399C154.51 62.594 154.253 61.6831 154.253 60.645V56.9906C154.253 55.8784 154.51 54.8933 155.023 54.0459C155.537 53.1986 156.254 52.5418 157.185 52.0652C158.106 51.5991 159.176 51.3555 160.375 51.3555H162.665C164.495 51.3555 165.961 51.8639 167.063 52.8808C168.166 53.8976 168.722 55.2535 168.722 56.9589V59.9565H158.148V60.6344C158.148 61.2594 158.352 61.7572 158.748 62.1385C159.144 62.5199 159.69 62.6999 160.375 62.6999H162.601C163.264 62.6999 163.81 62.5516 164.217 62.2656C164.623 61.969 164.827 61.5877 164.827 61.1217H168.658C168.658 62.0644 168.401 62.9012 167.887 63.6427C167.374 64.3841 166.657 64.9455 165.726 65.3374C164.805 65.7293 163.735 65.9306 162.536 65.9306H160.364C159.165 65.9306 158.106 65.7082 157.175 65.2633H157.185ZM164.891 57.1813V56.9589C164.891 56.228 164.687 55.6348 164.291 55.1899C163.895 54.745 163.36 54.5226 162.686 54.5226H160.375C159.69 54.5226 159.133 54.7556 158.716 55.2323C158.298 55.7089 158.084 56.3233 158.084 57.0965V57.1813H164.891Z" fill="#153898"/>
<path d="M170.638 51.5779H174.244V53.3892C174.608 52.8384 175.122 52.3935 175.807 52.0439C176.481 51.6944 177.198 51.5249 177.937 51.5249H179.884V54.8615H177.937C176.931 54.8615 176.107 55.1687 175.475 55.7619C174.844 56.3656 174.533 57.1389 174.533 58.0816V65.6975H170.649V51.5779H170.638Z" fill="#153898"/>
<path d="M181.757 64.5642C180.709 63.6638 180.184 62.4669 180.184 60.9946H184.015C184.015 61.503 184.187 61.9161 184.54 62.2233C184.893 62.5305 185.353 62.6893 185.931 62.6893H188.5C189.645 62.6893 190.212 62.3822 190.212 61.7572V61.2806C190.212 61.0899 190.116 60.9204 189.923 60.7615C189.73 60.6026 189.473 60.4967 189.152 60.4332L184.208 59.5858C183.042 59.3951 182.121 58.982 181.447 58.357C180.773 57.7215 180.43 56.98 180.43 56.1326V55.2005C180.43 53.993 180.933 53.0503 181.929 52.3723C182.924 51.6944 184.326 51.3555 186.113 51.3555H188.339C189.944 51.3555 191.229 51.7792 192.213 52.616C193.198 53.4528 193.69 54.565 193.69 55.942H189.859C189.859 55.5289 189.72 55.2005 189.441 54.9569C189.163 54.7133 188.799 54.5862 188.339 54.5862H186.167C184.925 54.5862 184.304 54.8721 184.304 55.4335V55.889C184.304 56.1009 184.39 56.2703 184.551 56.408C184.711 56.5457 184.947 56.6517 185.246 56.7046L190.447 57.6368C191.528 57.8274 192.406 58.2299 193.08 58.8443C193.744 59.4587 194.075 60.1472 194.075 60.9204V61.9373C194.075 63.166 193.562 64.1299 192.545 64.8502C191.528 65.5705 190.169 65.9306 188.468 65.9306H185.899C184.165 65.9306 182.774 65.4751 181.725 64.5748L181.757 64.5642Z" fill="#153898"/>
<path d="M196.515 49.6077C196.066 49.184 195.841 48.6226 195.841 47.9235C195.841 47.2244 196.066 46.663 196.515 46.2393C196.965 45.8156 197.564 45.6038 198.303 45.6038C199.041 45.6038 199.64 45.8156 200.09 46.2393C200.539 46.663 200.764 47.2244 200.764 47.9235C200.764 48.6226 200.539 49.184 200.09 49.6077C199.64 50.0314 199.041 50.2432 198.303 50.2432C197.564 50.2432 196.965 50.0314 196.515 49.6077ZM196.366 51.5779H200.25V65.6975H196.366V51.5779Z" fill="#153898"/>
<path d="M205.912 64.5642C205.131 63.8122 204.735 62.6364 204.735 61.0581V54.8616H202.22V51.5779H204.852V47.3092H208.63V51.5779H212.344V54.8616H208.63V60.8886C208.63 61.4183 208.726 61.7996 208.93 62.0538C209.133 62.2974 209.443 62.4246 209.882 62.4246H212.344V65.7082H209.604C207.924 65.7082 206.693 65.3268 205.912 64.5748V64.5642Z" fill="#153898"/>
<path d="M215.929 70.157C214.934 69.299 214.366 68.1762 214.259 66.778H218.091C218.134 67.1911 218.305 67.53 218.604 67.7843C218.904 68.0385 219.289 68.1656 219.75 68.1656H222.093C222.682 68.1656 223.163 67.922 223.538 67.4453C223.913 66.9687 224.095 66.3331 224.095 65.5599V63.7168C223.656 64.2994 223.153 64.7549 222.596 65.0938C222.029 65.4222 221.473 65.5917 220.927 65.5917H219.043C217.534 65.5917 216.325 65.0938 215.415 64.1087C214.506 63.1236 214.045 61.7996 214.045 60.1578V51.5885H217.93V60.2213C217.93 60.8463 218.091 61.3441 218.401 61.736C218.711 62.1279 219.129 62.3186 219.643 62.3186H221.301C221.933 62.3186 222.5 62.0644 223.014 61.5454C223.527 61.0263 223.891 60.3378 224.095 59.4904V51.5991H227.979V65.5811C227.979 66.7462 227.733 67.7737 227.252 68.6634C226.77 69.5532 226.074 70.2417 225.175 70.7289C224.276 71.2162 223.249 71.4598 222.083 71.4598H219.739C218.198 71.4598 216.924 71.0255 215.918 70.1675L215.929 70.157Z" fill="#153898"/>
<path d="M240.426 65.2316C239.506 64.7655 238.789 64.1194 238.286 63.2614C237.783 62.414 237.526 61.4289 237.526 60.3167V57.0013C237.526 55.8891 237.783 54.904 238.296 54.046C238.81 53.1881 239.527 52.5207 240.458 52.0547C241.378 51.5886 242.449 51.345 243.647 51.345H246.216C247.414 51.345 248.474 51.578 249.405 52.0547C250.325 52.5313 251.053 53.1881 251.567 54.046C252.081 54.904 252.337 55.8891 252.337 57.0013V60.3167C252.337 61.4289 252.081 62.414 251.567 63.2614C251.053 64.1088 250.336 64.7655 249.405 65.2316C248.485 65.6976 247.404 65.9201 246.184 65.9201H243.615C242.417 65.9201 241.357 65.6871 240.426 65.2316ZM246.13 62.6153C246.837 62.6153 247.393 62.3717 247.821 61.895C248.249 61.4183 248.453 60.7828 248.453 60.0095V57.2661C248.453 56.4929 248.239 55.8679 247.821 55.3807C247.404 54.8934 246.847 54.6604 246.162 54.6604H243.701C243.016 54.6604 242.459 54.904 242.042 55.3807C241.625 55.8573 241.411 56.4929 241.411 57.2661V60.0095C241.411 60.7828 241.625 61.4078 242.042 61.895C242.459 62.3717 243.005 62.6153 243.669 62.6153H246.13Z" fill="#153898"/>
<path d="M255.505 54.8616H253.044V51.5779H255.505V50.6458C255.505 49.1205 255.997 47.9236 256.982 47.0656C257.967 46.2076 259.326 45.7733 261.081 45.7733H263.136V49.0569H261.134C260.524 49.0569 260.086 49.1841 259.807 49.4489C259.529 49.7137 259.39 50.1268 259.39 50.6988V51.5779H262.825V54.8616H259.39V65.6976H255.505V54.8616Z" fill="#153898"/>
<path d="M97.1682 73.4298H101.117V81.6071H110.439V73.4298H114.388V93.2376H110.439V85.0073H101.117V93.2376H97.1682V73.4298Z" fill="#153898"/>
<path d="M119.418 92.7716C118.497 92.3056 117.78 91.6594 117.277 90.8015C116.774 89.9541 116.517 88.969 116.517 87.8568V84.5413C116.517 83.4291 116.774 82.444 117.288 81.5861C117.802 80.7281 118.519 80.0608 119.45 79.5947C120.37 79.1286 121.44 78.885 122.639 78.885H125.208C126.406 78.885 127.466 79.1181 128.397 79.5947C129.317 80.0714 130.045 80.7281 130.559 81.5861C131.072 82.444 131.329 83.4291 131.329 84.5413V87.8568C131.329 88.969 131.072 89.9541 130.559 90.8015C130.045 91.6488 129.328 92.3056 128.397 92.7716C127.476 93.2377 126.395 93.4602 125.175 93.4602H122.607C121.408 93.4602 120.349 93.2271 119.418 92.7716ZM125.122 90.1553C125.828 90.1553 126.385 89.9117 126.813 89.435C127.241 88.9584 127.444 88.3228 127.444 87.5496V84.8062C127.444 84.0329 127.23 83.408 126.813 82.9207C126.395 82.4441 125.839 82.2004 125.154 82.2004H122.693C122.008 82.2004 121.451 82.4441 121.034 82.9207C120.616 83.3974 120.402 84.0329 120.402 84.8062V87.5496C120.402 88.3228 120.616 88.9478 121.034 89.435C121.451 89.9117 121.997 90.1553 122.66 90.1553H125.122Z" fill="#153898"/>
<path d="M143.058 92.528C141.945 91.9031 141.079 91.0239 140.469 89.8799C139.859 88.7359 139.548 87.4225 139.548 85.9289V80.7281C139.548 79.2345 139.859 77.9211 140.479 76.7771C141.1 75.6332 141.978 74.754 143.112 74.129C144.246 73.5041 145.552 73.1969 147.04 73.1969H150.068C151.502 73.1969 152.755 73.5041 153.846 74.0973C154.938 74.701 155.773 75.5484 156.372 76.6288C156.971 77.7092 157.271 78.9698 157.271 80.4103H153.386C153.386 79.2769 153.076 78.366 152.476 77.6775C151.866 76.989 151.064 76.65 150.079 76.65H147.05C145.98 76.65 145.124 77.0419 144.482 77.8258C143.829 78.6096 143.508 79.6371 143.508 80.8976V85.7595C143.508 87.02 143.818 88.0474 144.45 88.8313C145.081 89.6151 145.905 90.007 146.933 90.007H150.026C151.032 90.007 151.856 89.6257 152.498 88.8419C153.14 88.0686 153.461 87.0517 153.461 85.7912H157.346C157.346 87.3165 157.035 88.6618 156.425 89.8269C155.815 90.9921 154.959 91.8819 153.857 92.5174C152.755 93.153 151.47 93.4601 150.026 93.4601H146.933C145.466 93.4601 144.172 93.153 143.058 92.528Z" fill="#153898"/>
<path d="M158.973 73.4299H162.857V80.5268C163.275 80.0395 163.799 79.637 164.42 79.3405C165.041 79.0439 165.64 78.885 166.207 78.885H167.984C169.503 78.885 170.734 79.3616 171.654 80.3044C172.575 81.2471 173.046 82.497 173.046 84.0435V93.2377H169.161V84.1812C169.161 83.5986 169 83.122 168.69 82.7618C168.38 82.4017 167.973 82.2216 167.47 82.2216H165.693C165.03 82.2216 164.431 82.4652 163.906 82.9419C163.382 83.4185 163.039 84.0541 162.857 84.8273V93.2271H158.973V73.4193V73.4299Z" fill="#153898"/>
<path d="M176.139 77.1585C175.689 76.7348 175.464 76.1734 175.464 75.4743C175.464 74.7752 175.689 74.2138 176.139 73.7901C176.588 73.3664 177.187 73.1545 177.926 73.1545C178.664 73.1545 179.264 73.3664 179.713 73.7901C180.163 74.2138 180.387 74.7752 180.387 75.4743C180.387 76.1734 180.163 76.7348 179.713 77.1585C179.264 77.5822 178.664 77.794 177.926 77.794C177.187 77.794 176.588 77.5822 176.139 77.1585ZM175.978 79.1181H179.863V93.2377H175.978V79.1181Z" fill="#153898"/>
<path d="M189.11 73.4298H192.631L199.18 85.1979L205.58 73.4298H209.101V93.2376H205.238V80.7068L201.032 88.238C200.743 88.7464 200.454 89.1065 200.165 89.329C199.865 89.5514 199.533 89.6574 199.148 89.6574H198.057L192.973 80.7174V93.2482H189.11V73.4404V73.4298Z" fill="#153898"/>
<path d="M212.483 77.1585C212.033 76.7348 211.809 76.1734 211.809 75.4743C211.809 74.7752 212.033 74.2138 212.483 73.7901C212.932 73.3664 213.532 73.1545 214.27 73.1545C215.008 73.1545 215.608 73.3664 216.057 73.7901C216.507 74.2138 216.732 74.7752 216.732 75.4743C216.732 76.1734 216.507 76.7348 216.057 77.1585C215.608 77.5822 215.008 77.794 214.27 77.794C213.532 77.794 212.932 77.5822 212.483 77.1585ZM212.322 79.1181H216.207V93.2377H212.322V79.1181Z" fill="#153898"/>
<path d="M219.322 79.1181H222.928V80.8129C223.346 80.2303 223.891 79.7642 224.555 79.4146C225.218 79.0651 225.893 78.8956 226.556 78.8956H228.269C229.788 78.8956 231.019 79.3723 231.939 80.315C232.86 81.2577 233.331 82.5076 233.331 84.0541V93.2483H229.446V84.1918C229.446 83.6092 229.285 83.1326 228.975 82.7724C228.664 82.4123 228.258 82.2322 227.765 82.2322H226.053C225.39 82.2322 224.79 82.4758 224.266 82.9525C223.741 83.4292 223.399 84.0647 223.217 84.8379V93.2377H219.332V79.1181H219.322Z" fill="#153898"/>
<path d="M235.76 73.4299H239.645V80.5268C240.062 80.0395 240.586 79.637 241.207 79.3405C241.828 79.0439 242.427 78.885 242.994 78.885H244.771C246.291 78.885 247.521 79.3616 248.442 80.3044C249.362 81.2471 249.833 82.497 249.833 84.0435V93.2377H245.948V84.1812C245.948 83.5986 245.788 83.122 245.477 82.7618C245.167 82.4017 244.76 82.2216 244.257 82.2216H242.481C241.817 82.2216 241.218 82.4652 240.693 82.9419C240.169 83.4185 239.826 84.0541 239.645 84.8273V93.2271H235.76V73.4193V73.4299Z" fill="#153898"/>
<path d="M261.969 92.528C260.856 91.9031 259.989 91.0239 259.379 89.8799C258.769 88.7359 258.459 87.4225 258.459 85.9289V80.7281C258.459 79.2345 258.769 77.9211 259.39 76.7771C260.011 75.6332 260.888 74.754 262.023 74.129C263.157 73.5041 264.463 73.1969 265.95 73.1969H268.979C270.413 73.1969 271.665 73.5041 272.757 74.0973C273.848 74.701 274.683 75.5484 275.283 76.6288C275.882 77.7092 276.181 78.9698 276.181 80.4103H272.297C272.297 79.2769 271.986 78.366 271.387 77.6775C270.777 76.989 269.974 76.65 268.99 76.65H265.961C264.891 76.65 264.035 77.0419 263.392 77.8258C262.74 78.6096 262.419 79.6371 262.419 80.8976V85.7595C262.419 87.02 262.729 88.0474 263.36 88.8313C263.992 89.6151 264.816 90.007 265.843 90.007H268.936C269.942 90.007 270.766 89.6257 271.408 88.8419C272.051 88.0686 272.372 87.0517 272.372 85.7912H276.256C276.256 87.3165 275.946 88.6618 275.336 89.8269C274.726 90.9921 273.87 91.8819 272.768 92.5174C271.665 93.153 270.381 93.4601 268.936 93.4601H265.843C264.377 93.4601 263.082 93.153 261.969 92.528Z" fill="#153898"/>
<path d="M278.547 77.1585C278.097 76.7348 277.872 76.1734 277.872 75.4743C277.872 74.7752 278.097 74.2138 278.547 73.7901C278.996 73.3664 279.595 73.1545 280.334 73.1545C281.072 73.1545 281.672 73.3664 282.121 73.7901C282.571 74.2138 282.795 74.7752 282.795 75.4743C282.795 76.1734 282.571 76.7348 282.121 77.1585C281.672 77.5822 281.072 77.794 280.334 77.794C279.595 77.794 278.996 77.5822 278.547 77.1585ZM278.386 79.1181H282.271V93.2377H278.386V79.1181Z" fill="#153898"/>
<path d="M287.932 92.1043C287.151 91.3522 286.755 90.1764 286.755 88.5982V82.4016H284.24V79.118H286.873V74.8492H290.651V79.118H294.364V82.4016H290.651V88.4287C290.651 88.9583 290.747 89.3396 290.95 89.5938C291.154 89.8375 291.464 89.9646 291.903 89.9646H294.364V93.2482H291.625C289.944 93.2482 288.714 92.8669 287.932 92.1148V92.1043Z" fill="#153898"/>
<path d="M297.949 97.697C296.954 96.839 296.387 95.7162 296.28 94.318H300.111C300.154 94.7311 300.325 95.0701 300.625 95.3243C300.925 95.5785 301.31 95.7056 301.77 95.7056H304.114C304.702 95.7056 305.184 95.462 305.559 94.9854C305.933 94.5087 306.115 93.8732 306.115 93.0999V91.2568C305.676 91.8394 305.173 92.2949 304.617 92.6338C304.05 92.9622 303.493 93.1317 302.947 93.1317H301.064C299.555 93.1317 298.345 92.6338 297.436 91.6487C296.526 90.6636 296.066 89.3396 296.066 87.6978V79.1285H299.951V87.7613C299.951 88.3863 300.111 88.8841 300.422 89.276C300.732 89.668 301.149 89.8586 301.663 89.8586H303.322C303.953 89.8586 304.52 89.6044 305.034 89.0854C305.548 88.5664 305.912 87.8778 306.115 87.0305V79.1391H310V93.1211C310 94.2862 309.754 95.3137 309.272 96.2035C308.791 97.0932 308.095 97.7817 307.196 98.269C306.297 98.7562 305.27 98.9998 304.103 98.9998H301.759C300.218 98.9998 298.945 98.5656 297.939 97.7076L297.949 97.697Z" fill="#153898"/>
</svg>
